<?xml version="1.0" standalone="no"?>
<!DOCTYPE svg PUBLIC "-//W3C//DTD SVG 20010904//EN"
 "http://www.w3.org/TR/2001/REC-SVG-20010904/DTD/svg10.dtd">
<svg version="1.0" xmlns="http://www.w3.org/2000/svg"
 width="2024.000000pt" height="2024.000000pt" viewBox="0 0 2024.000000 2024.000000"
 preserveAspectRatio="xMidYMid meet">
<metadata>
Created by potrace 1.14, written by Peter Selinger 2001-2017
</metadata>
<g transform="translate(0.000000,2024.000000) scale(0.100000,-0.100000)"
fill="#000000" stroke="none">
<path d="M6315 13735 c-188 -41 -311 -132 -433 -320 -381 -588 -662 -1495
-773 -2497 -12 -106 -23 -194 -24 -196 -1 -1 -249 22 -551 52 -1276 128 -2236
194 -3763 261 -184 8 -336 13 -337 12 -3 -3 174 -292 344 -562 798 -1269 1698
-2167 3022 -3015 355 -228 699 -429 1245 -730 193 -106 373 -206 402 -222 l51
-29 143 188 c347 458 609 754 1056 1193 545 536 1134 1035 1850 1568 l232 173
318 -56 c1436 -253 4579 -898 6133 -1260 1312 -306 3020 -751 4354 -1135 77
-22 141 -38 142 -37 2 2 -36 20 -84 41 -1418 623 -3005 1193 -4552 1635 -1482
423 -3436 876 -5210 1207 -223 41 -406 76 -407 77 -5 5 534 348 767 490 470
284 893 519 1317 730 219 110 596 287 610 287 40 0 980 -435 1598 -739 803
-396 1361 -690 2745 -1451 1180 -649 1543 -855 2748 -1567 293 -174 535 -314
537 -311 4 4 -560 964 -754 1283 -704 1158 -1347 2008 -2012 2660 -678 665
-1338 1079 -1993 1250 -467 122 -870 125 -1401 9 -432 -94 -1007 -286 -1482
-495 -76 -34 -147 -63 -158 -66 -11 -2 -157 48 -325 112 -1423 543 -2927 997
-4350 1314 -710 158 -857 179 -1005 146z m550 -309 c1290 -321 2530 -714 3785
-1201 258 -100 751 -299 779 -315 9 -4 -85 -58 -270 -152 -786 -402 -1596
-891 -2416 -1459 l-103 -71 -402 66 c-923 151 -2192 326 -2845 392 -95 10
-177 20 -183 24 -11 7 24 264 70 505 161 836 442 1585 778 2072 119 173 218
226 407 218 82 -3 155 -17 400 -79z m7840 -1236 c626 -118 1246 -488 1909
-1140 476 -468 827 -899 1336 -1640 62 -91 123 -178 134 -195 l21 -30 -40 24
c-116 69 -898 513 -1073 610 -1062 586 -2545 1304 -3802 1841 -223 95 -408
176 -413 180 -15 13 455 175 708 244 310 85 527 124 735 134 170 9 343 -2 485
-28z m-12693 -1805 c546 -31 1155 -74 1688 -120 403 -35 1296 -122 1336 -130
21 -5 21 -8 27 -417 7 -509 25 -761 88 -1260 31 -246 53 -382 43 -264 -33 389
-45 553 -54 730 -17 348 -9 1171 12 1192 17 16 1231 -133 2033 -251 501 -73
785 -118 784 -124 0 -3 -50 -44 -112 -91 -880 -670 -1765 -1497 -2343 -2190
-71 -85 -139 -167 -151 -182 -11 -16 -23 -28 -26 -28 -12 0 -653 365 -857 488
-1004 604 -1685 1151 -2315 1857 -128 143 -221 260 -386 480 -251 334 -251
335 -230 335 11 0 219 -11 463 -25z"/>
<path d="M5202 8100 c0 -14 2 -19 5 -12 2 6 2 18 0 25 -3 6 -5 1 -5 -13z"/>
</g>
</svg>
